<svg width="1200" height="675" viewBox="0 0 1200 675" xmlns="http://www.w3.org/2000/svg" role="img" aria-labelledby="title desc">
  <title id="title">How OpenRung works</title>
  <desc id="desc">Animated diagram showing a client asking the OpenRung broker for healthy relays, then sending encrypted traffic through a relay to the open internet while the broker stays out of the data path.</desc>
  <defs>
    <linearGradient id="bgGradient" x1="0" y1="0" x2="1" y2="1">
      <stop offset="0" stop-color="#fbfdfb"/>
      <stop offset="0.52" stop-color="#f1f8f4"/>
      <stop offset="1" stop-color="#e9f3ff"/>
    </linearGradient>
    <linearGradient id="dataGradient" x1="0" y1="0" x2="1" y2="0">
      <stop offset="0" stop-color="#1d8a4f"/>
      <stop offset="0.48" stop-color="#35d07f"/>
      <stop offset="1" stop-color="#2f80ed"/>
    </linearGradient>
    <linearGradient id="cardGradient" x1="0" y1="0" x2="1" y2="1">
      <stop offset="0" stop-color="#ffffff"/>
      <stop offset="1" stop-color="#f5fbf8"/>
    </linearGradient>
    <radialGradient id="internetGlow" cx="50%" cy="45%" r="65%">
      <stop offset="0" stop-color="#dff4ff"/>
      <stop offset="0.7" stop-color="#c9e7ff" stop-opacity="0.6"/>
      <stop offset="1" stop-color="#c9e7ff" stop-opacity="0"/>
    </radialGradient>
    <filter id="softShadow" x="-25%" y="-25%" width="150%" height="150%">
      <feDropShadow dx="0" dy="18" stdDeviation="18" flood-color="#0a2316" flood-opacity="0.14"/>
    </filter>
    <filter id="greenGlow" x="-30%" y="-30%" width="160%" height="160%">
      <feDropShadow dx="0" dy="0" stdDeviation="8" flood-color="#35d07f" flood-opacity="0.45"/>
    </filter>
    <filter id="blueGlow" x="-30%" y="-30%" width="160%" height="160%">
      <feDropShadow dx="0" dy="0" stdDeviation="7" flood-color="#2f80ed" flood-opacity="0.45"/>
    </filter>
    <clipPath id="phoneClip">
      <rect x="0" y="0" width="78" height="132" rx="20"/>
    </clipPath>
    <clipPath id="zoneClip">
      <rect x="0" y="0" width="295" height="316" rx="26"/>
    </clipPath>
    <path id="clientToBroker" d="M 258 365 C 318 278 420 227 555 208"/>
    <path id="brokerToClient" d="M 555 224 C 418 252 323 302 260 382"/>
    <path id="relayToBroker" d="M 835 323 C 768 249 692 211 637 207"/>
    <path id="brokerToRelay" d="M 637 225 C 706 240 783 280 842 340"/>
    <path id="clientDataPath" d="M 268 438 C 415 535 652 530 823 414"/>
    <path id="relayDataPath" d="M 915 407 C 979 393 1022 350 1054 296"/>
    <path id="fullDataPath" d="M 268 438 C 415 535 652 530 823 414 C 901 362 982 362 1054 296"/>
    <style>
      svg {
        color: #10251a;
        font-family: ui-sans-serif, system-ui, -apple-system, BlinkMacSystemFont, "Segoe UI", sans-serif;
      }

      .eyebrow {
        fill: #1d8a4f;
        font-size: 16px;
        font-weight: 800;
        text-transform: uppercase;
      }

      .headline {
        fill: #0b1d14;
        font-size: 54px;
        font-weight: 850;
      }

      .subhead {
        fill: #50665a;
        font-size: 21px;
        font-weight: 520;
      }

      .label {
        fill: #0d2317;
        font-size: 20px;
        font-weight: 780;
      }

      .small {
        fill: #5a6f64;
        font-size: 14px;
        font-weight: 600;
      }

      .tiny {
        fill: #6c7d73;
        font-size: 12px;
        font-weight: 650;
      }

      .tiny.inverse {
        fill: #d9f5e5;
      }

      .pill-text {
        fill: #0e2a1b;
        font-size: 13px;
        font-weight: 800;
      }

      .card {
        fill: url(#cardGradient);
        stroke: #dbe8e1;
        stroke-width: 1.4;
      }

      .zone {
        fill: rgba(255, 255, 255, 0.46);
        stroke: #dbe8e1;
        stroke-dasharray: 8 12;
        stroke-width: 1.4;
      }

      .zone-label {
        fill: #718279;
        font-size: 13px;
        font-weight: 800;
        text-transform: uppercase;
      }

      .control-line {
        fill: none;
        stroke: #7ba895;
        stroke-width: 3;
        stroke-linecap: round;
        stroke-dasharray: 2 12;
        opacity: 0.58;
        animation: dashDrift 3.6s linear infinite;
      }

      .control-line.blue {
        stroke: #2f80ed;
      }

      .control-line.gold {
        stroke: #d39a2c;
      }

      .data-line {
        fill: none;
        stroke: url(#dataGradient);
        stroke-width: 9;
        stroke-linecap: round;
        stroke-dasharray: 710;
        stroke-dashoffset: 710;
        filter: url(#greenGlow);
        animation: drawData 6s ease-in-out infinite;
      }

      .data-line-under {
        fill: none;
        stroke: #cfe7db;
        stroke-width: 13;
        stroke-linecap: round;
        opacity: 0.75;
      }

      .packet {
        filter: url(#greenGlow);
      }

      .control-packet {
        filter: url(#blueGlow);
      }

      .ring {
        fill: none;
        stroke: #35d07f;
        stroke-width: 2;
        opacity: 0;
        transform-origin: center;
        animation: relayPing 3.2s ease-out infinite;
      }

      .ring.delay {
        animation-delay: 1.6s;
      }

      .step-one {
        animation: glowStep 6s ease-in-out infinite;
      }

      .step-two {
        animation: glowStep 6s ease-in-out infinite;
        animation-delay: 1.4s;
      }

      .step-three {
        animation: glowStep 6s ease-in-out infinite;
        animation-delay: 2.9s;
      }

      .lock-shine {
        opacity: 0.1;
        animation: lockShine 3.4s ease-in-out infinite;
      }

      .fade-note {
        animation: fadeNote 6s ease-in-out infinite;
      }

      @keyframes dashDrift {
        from { stroke-dashoffset: 0; }
        to { stroke-dashoffset: -56; }
      }

      @keyframes drawData {
        0%, 18% { stroke-dashoffset: 710; opacity: 0.28; }
        42%, 82% { stroke-dashoffset: 0; opacity: 1; }
        100% { stroke-dashoffset: -710; opacity: 0.36; }
      }

      @keyframes relayPing {
        0% { opacity: 0; r: 46; }
        12% { opacity: 0.55; }
        100% { opacity: 0; r: 82; }
      }

      @keyframes glowStep {
        0%, 100% { opacity: 0.68; }
        18%, 48% { opacity: 1; }
        70% { opacity: 0.72; }
      }

      @keyframes lockShine {
        0%, 48%, 100% { opacity: 0.12; transform: translateX(-8px); }
        64% { opacity: 0.65; transform: translateX(14px); }
      }

      @keyframes fadeNote {
        0%, 14%, 100% { opacity: 0.45; }
        35%, 74% { opacity: 1; }
      }

      @media (prefers-reduced-motion: reduce) {
        .control-line,
        .data-line,
        .ring,
        .step-one,
        .step-two,
        .step-three,
        .lock-shine,
        .fade-note {
          animation: none !important;
        }
      }
    </style>
  </defs>

  <rect width="1200" height="675" fill="url(#bgGradient)"/>
  <circle cx="1032" cy="274" r="230" fill="url(#internetGlow)"/>
  <path d="M 84 548 C 274 605 446 603 604 556 C 771 506 948 513 1119 577" fill="none" stroke="#dcebe3" stroke-width="1.5" stroke-dasharray="7 14" opacity="0.85"/>
  <path d="M 93 585 C 256 636 461 642 658 590 C 815 548 967 555 1110 617" fill="none" stroke="#d8e7fb" stroke-width="1.5" stroke-dasharray="5 13" opacity="0.8"/>

  <text x="74" y="166" class="subhead">Broker matches relays.</text>
  <text x="74" y="196" class="subhead">Relays carry encrypted traffic.</text>

  <g transform="translate(73 224)">
    <rect class="zone" x="0" y="0" width="295" height="316" rx="26"/>
    <text x="28" y="34" class="zone-label">Restricted network</text>
    <g clip-path="url(#zoneClip)" opacity="0.75">
      <path d="M14 236 C 58 218 96 218 128 232" stroke="#d3e2d9" stroke-width="4" stroke-linecap="round" stroke-dasharray="0.5 9" fill="none"/>
      <path d="M196 248 C 234 232 264 234 288 246" stroke="#d3e2d9" stroke-width="4" stroke-linecap="round" stroke-dasharray="0.5 9" fill="none"/>
      <g transform="translate(-10 162) rotate(-35.2)">
        <rect width="112" height="20" fill="#c9d9d0"/>
        <rect width="112" height="3.5" fill="#b1c5b9"/>
        <path d="M4 -6.5h7v6.5h-7zm15 0h7v6.5h-7zm15 0h7v6.5h-7zm15 0h7v6.5h-7zm15 0h7v6.5h-7zm15 0h7v6.5h-7zm15 0h7v6.5h-7z" fill="#b1c5b9"/>
      </g>
      <g transform="translate(76 101.6) rotate(11.3)">
        <rect width="136" height="20" fill="#c9d9d0"/>
        <rect width="136" height="3.5" fill="#b1c5b9"/>
        <path d="M34 -6.5h7v6.5h-7zm15 0h7v6.5h-7zm15 0h7v6.5h-7zm15 0h7v6.5h-7zm15 0h7v6.5h-7zm15 0h7v6.5h-7zm15 0h7v6.5h-7z" fill="#b1c5b9"/>
      </g>
      <g transform="translate(200 126.5) rotate(-17.2)">
        <rect width="112" height="20" fill="#c9d9d0"/>
        <rect width="112" height="3.5" fill="#b1c5b9"/>
        <path d="M28 -6.5h7v6.5h-7zm15 0h7v6.5h-7zm15 0h7v6.5h-7zm15 0h7v6.5h-7zm15 0h7v6.5h-7zm15 0h7v6.5h-7z" fill="#b1c5b9"/>
      </g>
      <g>
        <rect x="70" y="84" width="36" height="48" rx="3" fill="#bccfc3"/>
        <rect x="76" y="70" width="24" height="14" rx="2" fill="#b1c5b9"/>
        <path d="M76 64h5v6h-5zm9.5 0h5v6h-5zm9.5 0h5v6h-5z" fill="#b1c5b9"/>
        <path d="M83 132v-12a5 5 0 0 1 10 0v12z" fill="#9db4a7"/>
      </g>
      <g>
        <rect x="193" y="106" width="30" height="50" rx="3" fill="#bccfc3"/>
        <rect x="198" y="92" width="20" height="14" rx="2" fill="#b1c5b9"/>
        <path d="M198 86h4.5v6h-4.5zm7.75 0h4.5v6h-4.5zm7.75 0h4.5v6h-4.5z" fill="#b1c5b9"/>
        <path d="M203 156v-11a5 5 0 0 1 10 0v11z" fill="#9db4a7"/>
      </g>
    </g>
  </g>

  <g transform="translate(730 223)">
    <rect class="zone" x="0" y="0" width="395" height="317" rx="26"/>
    <text x="28" y="34" class="zone-label">Open region</text>
  </g>

  <path class="control-line blue" d="M 258 365 C 318 278 420 227 555 208"/>
  <path class="control-line blue" d="M 555 224 C 418 252 323 302 260 382"/>
  <path class="control-line gold" d="M 835 323 C 768 249 692 211 637 207"/>
  <path class="control-line gold" d="M 637 225 C 706 240 783 280 842 340"/>
  <path class="data-line-under" d="M 268 438 C 415 535 652 530 823 414 C 901 362 982 362 1054 296"/>
  <path class="data-line" d="M 268 438 C 415 535 652 530 823 414 C 901 362 982 362 1054 296"/>

  <circle r="8" fill="#2f80ed" class="control-packet" opacity="0">
    <animateMotion dur="6s" repeatCount="indefinite" begin="0.4s">
      <mpath href="#clientToBroker"/>
    </animateMotion>
    <animate attributeName="opacity" values="0;1;1;0" keyTimes="0;0.12;0.62;1" dur="6s" repeatCount="indefinite" begin="0.4s"/>
  </circle>
  <circle r="7" fill="#1d8a4f" class="control-packet" opacity="0">
    <animateMotion dur="6s" repeatCount="indefinite" begin="1.7s">
      <mpath href="#brokerToClient"/>
    </animateMotion>
    <animate attributeName="opacity" values="0;1;1;0" keyTimes="0;0.16;0.6;1" dur="6s" repeatCount="indefinite" begin="1.7s"/>
  </circle>
  <circle r="7" fill="#f2b84b" class="control-packet" opacity="0">
    <animateMotion dur="6s" repeatCount="indefinite" begin="0s">
      <mpath href="#relayToBroker"/>
    </animateMotion>
    <animate attributeName="opacity" values="0;1;1;0" keyTimes="0;0.12;0.56;1" dur="6s" repeatCount="indefinite"/>
  </circle>
  <circle r="6" fill="#f2b84b" class="control-packet" opacity="0">
    <animateMotion dur="6s" repeatCount="indefinite" begin="2.1s">
      <mpath href="#brokerToRelay"/>
    </animateMotion>
    <animate attributeName="opacity" values="0;1;1;0" keyTimes="0;0.12;0.56;1" dur="6s" repeatCount="indefinite" begin="2.1s"/>
  </circle>
  <circle r="10" fill="#ffffff" stroke="#1d8a4f" stroke-width="4" class="packet" opacity="0">
    <animateMotion dur="6s" repeatCount="indefinite" begin="2.6s">
      <mpath href="#fullDataPath"/>
    </animateMotion>
    <animate attributeName="opacity" values="0;1;1;0" keyTimes="0;0.08;0.82;1" dur="6s" repeatCount="indefinite" begin="2.6s"/>
  </circle>
  <circle r="6" fill="#35d07f" class="packet" opacity="0">
    <animateMotion dur="6s" repeatCount="indefinite" begin="3.55s">
      <mpath href="#fullDataPath"/>
    </animateMotion>
    <animate attributeName="opacity" values="0;1;1;0" keyTimes="0;0.08;0.82;1" dur="6s" repeatCount="indefinite" begin="3.55s"/>
  </circle>

  <g transform="translate(141 315)">
    <g transform="translate(42 36)" filter="url(#softShadow)">
      <rect width="78" height="132" rx="20" fill="#173527"/>
      <g clip-path="url(#phoneClip)">
        <rect width="78" height="132" fill="#244a38"/>
        <path d="M0 98 C24 70 46 71 78 49 V132 H0Z" fill="#2f6e4d" opacity="0.65"/>
        <path d="M29 63l15 -10v27l-15 10z" fill="#dff9e9" opacity="0.95"/>
        <path d="M34 65l5 -3v19l-5 3z" fill="#1d8a4f"/>
      </g>
      <rect x="28" y="9" width="22" height="4" rx="2" fill="#cbe0d5" opacity="0.75"/>
    </g>
    <text x="81" y="186" text-anchor="middle" class="label">Client app</text>
    <text x="81" y="207" text-anchor="middle" class="small">VPN mode</text>
  </g>

  <g transform="translate(500 138)" filter="url(#softShadow)">
    <rect class="card" width="205" height="152" rx="26"/>
    <g transform="translate(64 26)">
      <rect x="0" y="0" width="76" height="20" rx="5" fill="#10251a"/>
      <rect x="0" y="24" width="76" height="20" rx="5" fill="#10251a"/>
      <rect x="0" y="48" width="76" height="20" rx="5" fill="#10251a"/>
      <circle cx="13" cy="10" r="3.4" fill="#35d07f"/>
      <circle cx="13" cy="34" r="3.4" fill="#35d07f"/>
      <circle cx="13" cy="58" r="3.4" fill="#35d07f"/>
      <path d="M28 10h34M28 34h34M28 58h34" stroke="#3c8f63" stroke-width="4" stroke-linecap="round"/>
    </g>
    <text x="102" y="120" text-anchor="middle" class="label">Broker</text>
    <text x="102" y="141" text-anchor="middle" class="small">matchmaking only</text>
  </g>

  <text x="602" y="320" text-anchor="middle" class="tiny">Broker does not carry browsing data</text>

  <g transform="translate(766 288)" filter="url(#softShadow)">
    <circle cx="94" cy="94" r="46" fill="#dff7ea"/>
    <circle cx="94" cy="94" r="46" class="ring"/>
    <circle cx="94" cy="94" r="46" class="ring delay"/>
    <rect class="card" x="0" y="52" width="188" height="170" rx="28"/>
    <g transform="translate(50 29)">
      <rect x="5" y="42" width="88" height="58" rx="11" fill="#193729"/>
      <rect x="14" y="51" width="70" height="40" rx="6" fill="#2a7151"/>
      <rect x="0" y="99" width="98" height="13" rx="6" fill="#11251a"/>
    </g>
    <text x="94" y="180" text-anchor="middle" class="label">Relay</text>
    <text x="94" y="198" text-anchor="middle" class="tiny">OpenRung operated relays</text>
    <text x="94" y="214" text-anchor="middle" class="tiny">and community volunteers</text>
  </g>

  <g transform="translate(1005 213)">
    <circle cx="70" cy="70" r="67" fill="#ffffff" stroke="#cbdde8" stroke-width="1.5"/>
    <circle cx="70" cy="70" r="45" fill="none" stroke="#cbdde8" stroke-width="1.5"/>
    <ellipse cx="70" cy="70" rx="20" ry="66" fill="none" stroke="#cbdde8" stroke-width="1.5"/>
    <path d="M10 70h120M22 40c30 13 66 13 96 0M22 100c30-13 66-13 96 0" stroke="#cbdde8" stroke-width="1.5" fill="none"/>
    <g transform="translate(35 41)">
      <rect width="70" height="58" rx="14" fill="#0f2b1d"/>
      <path d="M23 35l10 9 16 -26" stroke="#35d07f" stroke-width="7" stroke-linecap="round" stroke-linejoin="round"/>
    </g>
    <text x="70" y="168" text-anchor="middle" class="label">Open internet</text>
    <text x="70" y="189" text-anchor="middle" class="small">websites and apps</text>
  </g>

  <g transform="translate(106 574)">
    <g class="step-one">
      <circle cx="0" cy="0" r="15" fill="#f2b84b"/>
      <text x="-4.5" y="5" fill="#1a241d" font-size="14" font-weight="900">1</text>
      <text x="25" y="5" class="small">Relays register and send heartbeats</text>
    </g>
  </g>
  <g transform="translate(425 574)">
    <g class="step-two">
      <circle cx="0" cy="0" r="15" fill="#2f80ed"/>
      <text x="-4.5" y="5" fill="#ffffff" font-size="14" font-weight="900">2</text>
      <text x="25" y="5" class="small">Client asks for a healthy relay</text>
    </g>
  </g>
  <g transform="translate(724 574)">
    <g class="step-three">
      <circle cx="0" cy="0" r="15" fill="#1d8a4f"/>
      <text x="-4.5" y="5" fill="#ffffff" font-size="14" font-weight="900">3</text>
      <text x="25" y="5" class="small">Encrypted traffic flows through the relay</text>
    </g>
  </g>

  <g transform="translate(488 452)" class="fade-note">
    <rect width="248" height="47" rx="23.5" fill="#ffffff" stroke="#cbded4"/>
    <g transform="translate(22 13)">
      <rect x="0" y="8" width="18" height="14" rx="4" fill="#1d8a4f"/>
      <path d="M5 8V5c0-5 8-5 8 0v3" fill="none" stroke="#1d8a4f" stroke-width="3" stroke-linecap="round"/>
      <rect class="lock-shine" x="4" y="8" width="5" height="14" fill="#ffffff"/>
    </g>
    <text x="52" y="29" class="pill-text">VLESS + REALITY + Vision</text>
  </g>
</svg>
